<?xml version="1.0" encoding="utf-8"?>
<!-- Generator: Adobe Illustrator 19.1.0, SVG Export Plug-In . SVG Version: 6.00 Build 0)  -->
<svg version="1.1" id="wifi" xmlns="http://www.w3.org/2000/svg" xmlns:xlink="http://www.w3.org/1999/xlink" x="0px" y="0px"
	 viewBox="0 0 612 792" style="enable-background:new 0 0 612 792;" xml:space="preserve">
<style type="text/css">
	.st0{fill:#C2C2C2;}
</style>
<path class="st0" d="M308.6,518.4c20.4,0,43.3,10.2,56.1,25.5l5.1,5.1l-61.2,58.6L249.9,549l2.6-5.1
	C265.2,526,285.6,518.4,308.6,518.4z M443.7,469.9c-73.9-73.9-196.3-73.9-270.3,0l35.7,35.7c53.6-53.6,142.8-53.6,198.9,0
	L443.7,469.9z M522.8,390.9c-119.9-119.8-313.7-119.8-433.5,0l38.2,35.7c99.4-99.5,260.1-99.5,359.6,0L522.8,390.9z M604.4,309.3
	c-79.1-79-186.2-122.4-298.4-122.4S89.2,230.2,10.2,309.3L45.9,345c68.9-68.9,163.2-107.1,262.7-107.1S499.8,276.1,571.2,345
	L604.4,309.3z"/>
</svg>
