<?xml version="1.0" ?><!DOCTYPE svg  PUBLIC '-//W3C//DTD SVG 1.1//EN'  'http://www.w3.org/Graphics/SVG/1.1/DTD/svg11.dtd'><svg id="Layer_1" style="enable-background:new 0 0 512 512;" version="1.1" viewBox="0 0 512 512" xml:space="preserve" xmlns="http://www.w3.org/2000/svg" xmlns:xlink="http://www.w3.org/1999/xlink"><style type="text/css">
	.st0{fill:#ADBDE7;stroke:#5D5185;stroke-width:9;stroke-miterlimit:10;}
	.st1{fill:#FFFFFF;stroke:#5D5185;stroke-width:9;stroke-miterlimit:10;}
	.st2{fill:#FFFFFF;}
	.st3{fill:#E2E7F7;}
	.st4{opacity:0.16;fill:#575F74;}
</style><g><g><polyline class="st0" points="95.8,177.1 95.8,42.5 334.3,42.5 430.4,134.8 430.4,473.2 95.8,473.2 95.8,177.1    "/><path class="st1" d="M428.8,134.8h-94.5V44c0-0.6,0.7-0.9,1.1-0.5l93.9,90.1C429.7,134.1,429.4,134.8,428.8,134.8z"/><g><path class="st2" d="M281.6,247.4c0,0-0.7-25.2-20.4-25.2c-19.3,0-20.2,24.9-20.2,24.9v1.3c0,1.1-0.1,2.2-0.1,3.3      c-0.3,8,1.4,14.3,3,18.4c1.6,4,4.3,7.5,8,9.6c7.5,4.5,16.7,3,23.7-5C283.2,265.9,281.6,247.4,281.6,247.4z M270,268.5      c-4.3,5.5-10,6.4-14.8,3.1c-2.2-1.4-3.7-3.6-4.7-6c-1.2-3.1-2.6-8.2-2.2-15.1v-2.1c0,0,0.6-17.7,12.8-17.7      c12.5,0,12.5,17.7,12.5,17.7S274.6,262.8,270,268.5z"/><path class="st2" d="M227.3,259.8v-37.1h-9.3L191.6,261v6.1H220v15.1h7.6v-15.1h9.5v-7.3H227.3z M220.3,260.5h-19.7l19.7-30      V260.5z"/><path class="st2" d="M320.5,259.8v-37.1h-9.3L284.7,261v6.1h28.4v15.1h7.6v-15.1h9.5v-7.3H320.5z M313.4,260.5h-19.7l19.7-30      V260.5z"/></g><rect class="st3" height="84.5" width="325.6" x="100.3" y="384.3"/><polygon class="st4" points="426,139.3 345.2,157.3 341.4,139.3    "/><rect class="st2" height="34.9" width="325.6" x="100.3" y="433.8"/></g></g></svg>