<?xml version="1.0" ?><svg baseProfile="tiny" id="Layer_1" version="1.2" viewBox="0 0 100 100" xml:space="preserve" xmlns="http://www.w3.org/2000/svg" xmlns:xlink="http://www.w3.org/1999/xlink"><path d="M50,0C22.4,0,0,22.4,0,50s22.4,50,50,50s50-22.4,50-50S77.6,0,50,0z M80.2,65.4c0.4,0.6,0.5,1.4,0.1,2.1  c-0.4,0.6-1.1,1-1.8,0.9l-19-2.1l-7.7,17.5c-0.3,0.7-1,1.1-1.7,1.1s-1.4-0.4-1.7-1.1l-7.7-17.5l-19,2.1c-0.7,0.1-1.5-0.3-1.8-0.9  c-0.4-0.6-0.3-1.5,0.1-2.1L31.1,50L19.8,34.6c-0.4-0.6-0.5-1.4-0.1-2.1c0.4-0.6,1.1-1,1.8-0.9l19,2.1l7.7-17.5  c0.3-0.7,1-1.1,1.7-1.1s1.4,0.4,1.7,1.1l7.7,17.5l19-2.1c0.7-0.1,1.5,0.3,1.8,0.9c0.4,0.6,0.3,1.5-0.1,2.1L68.9,50L80.2,65.4z"/></svg>