<svg id="S_DeletedByOthers_Xs_N_D_2x" data-name="S_DeletedByOthers_Xs_N_D@2x" xmlns="http://www.w3.org/2000/svg" width="26" height="26" viewBox="0 0 26 26">
  <defs>
    <style>
      .red {
        fill: #f53c3c;
      }

      
    </style>
  </defs>
  <title>S_DeletedByOthers_Xs_N_D@2x</title>
  <path class="red" d="M16,6V4.5C16,4.2,15.8,4,15.5,4h-5C10.2,4,10,4.2,10,4.5V6H4.5C4.2,6,4,6.2,4,6.5v1C4,7.8,4.2,8,4.5,8H6v13c0,0.6,0.4,1,1,1h12c0.6,0,1-0.4,1-1V8h1.5C21.8,8,22,7.8,22,7.5v-1C22,6.2,21.8,6,21.5,6H16z M10,20H8V8h2V20z M14,20h-2V8h2V20z M18,20h-2V8h2V20z"/>
  </svg>