<svg id="S_ReadOnlyRed_Sm_N_D_2x" data-name="S_ReadOnlyRed_Sm_N_D@2x" xmlns="http://www.w3.org/2000/svg" width="26" height="26" viewBox="0 0 26 26">
  <defs>
    <style>
      .red {
        fill: #f53c3c;
      }

      
    </style>
  </defs>
  <title>S_ReadOnlyRed_Sm_N_D@2x</title>
  <path class="red" d="M21,12H20V10.25a6.925,6.925,0,0,0-6.933-6.917h-.025A7,7,0,0,0,6,10.25V12H5a1,1,0,0,0-1,1V23a1,1,0,0,0,1,1H21a1,1,0,0,0,1-1V13A1,1,0,0,0,21,12Zm-6.424,6.727v1.909a1,1,0,0,1-1,1H12.394a1,1,0,0,1-1-1V18.727A2.764,2.764,0,0,1,10.4,16.7a2.6,2.6,0,1,1,5.2,0h0A2.573,2.573,0,0,1,14.576,18.727ZM8.506,12V10.254a4.37,4.37,0,0,1,4.319-4.42q.112,0,.224,0a4.37,4.37,0,0,1,4.54,4.193q0,.112,0,.224V12Z"/>
  </svg>