<svg id="S_Transparency_Sm_N_D_2x" data-name="S_Transparency_Sm_N_D@2x" xmlns="http://www.w3.org/2000/svg" width="32" height="32" viewBox="0 0 32 32">
  <defs>
    <style>
      .fill, .fillPale {
        fill: #fff;
      }

      .fill {
        opacity: 0.65;
      }

      .fillPale {
        opacity: 0.15;
      }

      
    </style>
  </defs>
  <title>S_Transparency_Sm_N_D@2x</title>
  <path class="fill" d="M4,28H8V23H3v4A1,1,0,0,0,4,28Z"/>
  <rect class="fill" x="13" y="3" width="5" height="5"/>
  <path class="fill" d="M3,4V8H8V3H4A1,1,0,0,0,3,4Z"/>
  <rect class="fill" x="23" y="13" width="5" height="5"/>
  <rect class="fill" x="13" y="13" width="5" height="5"/>
  <path class="fill" d="M28,27V23H23v5h4A1,1,0,0,0,28,27Z"/>
  <rect class="fill" x="13" y="23" width="5" height="5"/>
  <rect class="fill" x="3" y="13" width="5" height="5"/>
  <rect class="fill" x="8" y="18" width="5" height="5"/>
  <rect class="fill" x="18" y="8" width="5" height="5"/>
  <path class="fill" d="M27,3H23V8h5V4A1,1,0,0,0,27,3Z"/>
  <rect class="fill" x="18" y="18" width="5" height="5"/>
  <rect class="fill" x="8" y="8" width="5" height="5"/>
  <rect class="fillPale" x="8" y="3" width="5" height="5"/>
  <rect class="fillPale" x="18" y="3" width="5" height="5"/>
  <rect class="fillPale" x="13" y="8" width="5" height="5"/>
  <rect class="fillPale" x="23" y="8" width="5" height="5"/>
  <rect class="fillPale" x="8" y="13" width="5" height="5"/>
  <rect class="fillPale" x="18" y="13" width="5" height="5"/>
  <rect class="fillPale" x="13" y="18" width="5" height="5"/>
  <rect class="fillPale" x="23" y="18" width="5" height="5"/>
  <rect class="fillPale" x="8" y="23" width="5" height="5"/>
  <rect class="fillPale" x="3" y="18" width="5" height="5"/>
  <rect class="fillPale" x="3" y="8" width="5" height="5"/>
  <rect class="fillPale" x="18" y="23" width="5" height="5"/>
  </svg>