<svg id="S_SyncLocal_Sm_N_D_2x" data-name="S_SyncLocal_Sm_N_D@2x" xmlns="http://www.w3.org/2000/svg" width="28" height="28" viewBox="0 0 28 28">
  <defs>
    <style>
      .cls-1 {
        opacity: 0.65;
      }

      .yellow {
        fill: #f4c500;
      }

      
    </style>
  </defs>
  <title>S_SyncLocal_Sm_N_D@2x</title>
  <path class="cls-1" d="M14.8,21.7h-1.6c-0.4,0-0.8-0.3-0.8-0.8c0,0,0,0,0,0v-1.6c0-0.4,0.3-0.8,0.8-0.8c0,0,0,0,0,0h1.6
	c0.4,0,0.8,0.3,0.8,0.8c0,0,0,0,0,0v1.6C15.6,21.4,15.2,21.7,14.8,21.7C14.8,21.7,14.8,21.7,14.8,21.7z M14.8,17h-1.6
	c-0.4,0-0.8-0.3-0.8-0.8c0,0,0,0,0,0V10c0-0.4,0.3-0.8,0.8-0.8c0,0,0,0,0,0h1.6c0.4,0,0.8,0.3,0.8,0.8c0,0,0,0,0,0v6.2
	C15.6,16.7,15.2,17,14.8,17C14.8,17,14.8,17,14.8,17z"/>
  <path class="cls-1" d="M24.8,24.5c0.7,0,1.2-0.6,1.2-1.2c0-0.2-0.1-0.4-0.2-0.6L15,4.1c-0.3-0.6-1.1-0.8-1.6-0.4
	c-0.2,0.1-0.3,0.3-0.4,0.4L2.1,22.6C1.8,23.2,2,24,2.6,24.3c0.2,0.1,0.4,0.2,0.6,0.2H24.8z M4,23.3c-0.3,0-0.5-0.2-0.5-0.5
	c0-0.1,0-0.2,0.1-0.2l0.2-0.4l9.5-16.4l0,0l0.2-0.4c0.1-0.2,0.4-0.3,0.6-0.2c0.1,0,0.1,0.1,0.2,0.2l0.2,0.4l0,0l9.5,16.4l0.2,0.4
	c0.1,0.2,0.1,0.5-0.2,0.6c-0.1,0-0.2,0.1-0.2,0.1C24,23.3,4,23.3,4,23.3z"/>
  <path class="yellow" d="M24.4,22.6l-10-17.2c-0.1-0.2-0.4-0.3-0.6-0.2c-0.1,0-0.1,0.1-0.2,0.2l-10,17.2c-0.1,0.2-0.1,0.5,0.2,0.6
	c0.1,0,0.2,0.1,0.2,0.1h20c0.3,0,0.5-0.2,0.5-0.5C24.5,22.8,24.4,22.7,24.4,22.6z M14.8,21.7h-1.6c-0.4,0-0.8-0.3-0.8-0.8
	c0,0,0,0,0,0v-1.6c0-0.4,0.3-0.8,0.8-0.8c0,0,0,0,0,0h1.6c0.4,0,0.8,0.3,0.8,0.8c0,0,0,0,0,0v1.6C15.6,21.4,15.2,21.7,14.8,21.7
	C14.8,21.7,14.8,21.7,14.8,21.7z M14.8,17h-1.6c-0.4,0-0.8-0.3-0.8-0.8c0,0,0,0,0,0V10c0-0.4,0.3-0.8,0.8-0.8c0,0,0,0,0,0h1.6
	c0.4,0,0.8,0.3,0.8,0.8c0,0,0,0,0,0v6.2C15.6,16.7,15.2,17,14.8,17C14.8,17,14.8,17,14.8,17z"/>
  </svg>