<svg id="S_SyncComplete_Sm_N_D_2x" data-name="S_SyncComplete_Sm_N_D@2x" xmlns="http://www.w3.org/2000/svg" width="28" height="28" viewBox="0 0 28 28">
  <defs>
    <style>
      .background {
        opacity: 0.65;
      }

      .green {
        fill: #149b14;
      }

      
    </style>
  </defs>
  <title>S_SyncComplete_Sm_N_D@2x</title>
  <path class="background" d="M23.2,3.7c0.3,0,0.5,0.1,0.7,0.3l1.4,1.1c0.5,0.4,0.6,1.1,0.2,1.6L11.5,23.9c-0.4,0.5-1.1,0.6-1.6,0.2
	c-0.1-0.1-0.1-0.1-0.2-0.2l-7.2-8.8c-0.4-0.5-0.3-1.2,0.2-1.6l1.4-1.1c0.5-0.4,1.2-0.3,1.6,0.2c0,0,0,0,0,0l4.9,6L22.3,4.1
	C22.5,3.9,22.8,3.7,23.2,3.7z M23.2,2.9c-0.6,0-1.1,0.3-1.5,0.7L10.6,17.3L6.3,12c-0.7-0.8-1.9-1-2.7-0.3c0,0,0,0,0,0l-1.4,1.1
	c-0.8,0.7-1,1.9-0.3,2.7l7.2,8.8c0.7,0.8,1.9,1,2.7,0.3c0.1-0.1,0.2-0.2,0.3-0.3L26.1,7.2c0.7-0.8,0.6-2.1-0.3-2.7c0,0,0,0,0,0
	l-1.4-1.1C24.1,3.1,23.6,2.9,23.2,2.9z"/>
  <path class="green" d="M9.7,23.9l-7.2-8.8c-0.4-0.5-0.3-1.2,0.2-1.6l1.4-1.1c0.5-0.4,1.2-0.3,1.6,0.2c0,0,0,0,0,0l4.9,6L22.3,4.1
	c0.4-0.5,1.1-0.6,1.6-0.2l1.4,1.1c0.5,0.4,0.6,1.1,0.2,1.6L11.5,23.9c-0.4,0.5-1.1,0.6-1.6,0.2C9.8,24,9.8,23.9,9.7,23.9z"/>
  </svg>