<svg id="S_SyncAlert_17x15_N_D_2x" data-name="S_SyncAlert_17x15_N_D@2x" xmlns="http://www.w3.org/2000/svg" width="34" height="30" viewBox="0 0 34 30">
  <defs>
    <style>
      .background {
        opacity: 0.65;
      }

      .cls-1 {
        fill: #f4c500;
      }

      
    </style>
  </defs>
  <title>S_SyncAlert_17x15_N_D@2x</title>
  <path class="background" d="M1,0H33a1,1,0,0,1,1,1V29a1,1,0,0,1-1,1H1a1,1,0,0,1-1-1V1A1,1,0,0,1,1,0Z"/>
  <path class="cls-1" d="M4,4H30V26H4ZM2,3V27a1,1,0,0,0,1,1H31a1,1,0,0,0,1-1V3a1,1,0,0,0-1-1H3A1,1,0,0,0,2,3Z"/>
  <path class="cls-1" d="M26.11,22.422,18.042,6.411a1.153,1.153,0,0,0-2.084,0L7.89,22.422A1.244,1.244,0,0,0,8.932,24.25H25.068A1.244,1.244,0,0,0,26.11,22.422Zm-7.877-.947a.308.308,0,0,1-.308.308h-1.85a.308.308,0,0,1-.308-.308v-1.85a.308.308,0,0,1,.308-.308h1.85a.308.308,0,0,1,.308.308Zm0-3.7a.308.308,0,0,1-.308.308h-1.85a.308.308,0,0,1-.308-.308V10.992a.308.308,0,0,1,.308-.308h1.85a.308.308,0,0,1,.308.308Z"/>
  </svg>